# xmcd CD database file
#
# Track frame offsets:
#	150
#	15512
#	30737
#	49615
#	66770
#	94367
#	111907
#	128582
#	165332
#	179785
#	194677
#	207605
#	221457
#	227307
#	234330
#	252157
#	284722
#
# Disc length: 4106 seconds
#
# Revision: 4
# Processed by: cddbd v1.5PL3 Copyright (c) Steve Scherf et al.
# Submitted via: CDex 1.40Release
#
DISCID=f4100811
DTITLE=Various Artist - Bach's Greatest Hits
DYEAR=1992
DGENRE=Classical
TTITLE0=Camerata Romana - Brandenburg No. 2, Allegro assai
TTITLE1=Camerata Romana - Brandenburg No. 3, Allegro
TTITLE2=Christiane Jaccottet - Italian Concerto Mvt. 1 - Allegro
TTITLE3=Christiane Jaccottet - Prelude in C
TTITLE4=Stuttgart Radio Symphony - Sinfonia in G
TTITLE5=St. Louis Brass - Jesu, Joy of Man's Desiring
TTITLE6=St. Louis Brass - Arioso in F
TTITLE7=Hans-Christoph Becker-Foss - Toccata and Fugue in D minor
TTITLE8=Flute Sonata Movement 1
TTITLE9=Air on a G String
TTITLE10=Boree I and II from Orchestral Suite No. 1
TTITLE11=Polonaise from Orchestral Suite No. 2
TTITLE12=Menuett from Orchestral Suite No. 2
TTITLE13=Badinerie from Orchestral Suite No. 2
TTITLE14=Concerto for Two Violins - Vivace
TTITLE15=Concerto for Two Violins - Largo
TTITLE16=Concerto for Two Violins - Allegro
EXTD=YEAR: 1992 ID3G: 32
EXTT0=
EXTT1=
EXTT2=
EXTT3=
EXTT4=
EXTT5=
EXTT6=
EXTT7=
EXTT8=
EXTT9=
EXTT10=
EXTT11=
EXTT12=
EXTT13=
EXTT14=
EXTT15=
EXTT16=
PLAYORDER=
